<svg width="131" height="68" viewBox="0 0 131 68" fill="none" xmlns="http://www.w3.org/2000/svg">
<g clip-path="url(#clip0)">
<path d="M27.0769 22.9883C26.0832 22.7328 24.938 22.6192 24.938 22.6192C25.7709 20.8021 27.9571 17.1016 29.0739 17.783C30.0487 18.3793 27.7394 21.9851 27.0769 22.9883ZM24.02 24.777C24.02 24.777 24.5405 24.7865 25.1557 25.0515C24.7109 25.5626 23.5089 26.6983 23.1588 26.9633C23.4995 25.6004 24.02 24.777 24.02 24.777ZM20.9063 24.7581C20.9063 24.7581 19.6286 26.6226 18.0954 31.9982C16.0606 33.9194 11.7355 38.0553 7.44826 41.6422C7.24005 40.2226 7.99718 35.5662 10.3348 32.2537C14.66 26.121 20.9063 24.7581 20.9063 24.7581ZM7.78897 43.5161C7.78897 43.4688 7.94986 43.2984 8.07289 43.1848C8.29057 42.9672 15.824 36.0867 17.4992 34.4305C17.4992 34.4305 15.4739 41.9166 14.3666 49.1662C14.2719 49.1473 13.988 49.2892 13.3918 49.2419C12.7955 49.1946 9.40734 49.0905 7.93093 44.2354C7.85522 43.942 7.7795 43.5634 7.78897 43.5161ZM10.4579 59.4916C10.4579 59.4916 9.1802 61.375 8.177 62.3592C7.1738 63.3435 5.07275 64.8956 4.32509 63.3151C3.41653 61.375 7.09809 58.2802 10.4579 59.4916ZM34.847 32.6512C34.9511 31.4777 34.8943 30.1811 34.5252 29.1495C34.5252 29.1495 33.3611 25.2692 28.648 23.4142C28.648 23.4142 31.5062 19.9692 31.951 17.1584C32.2728 15.1047 30.3515 14.4422 27.8909 15.8239C27.8909 15.8239 25.2598 16.8555 22.4206 21.8621C22.2502 22.1649 22.1272 22.411 21.9474 22.7328C21.8716 22.7517 14.2151 23.8117 8.40414 29.6889C2.59314 35.5756 1.63726 42.4466 2.18618 44.86C2.2619 45.1912 2.31868 45.5414 2.366 45.7212L2.03476 46.0052C1.70351 46.2891 0.482635 47.2166 0.350137 47.4532C0.350137 47.4532 0.700311 47.8885 1.1262 47.8601C1.56155 47.8412 1.93065 47.5573 2.11047 47.4342C2.2619 47.3396 2.78243 47.0557 2.84868 47.0557C2.94332 47.1503 3.5017 48.2671 4.79829 49.4123C6.71005 51.0969 9.08556 51.7594 11.8207 51.589C12.5968 51.5417 13.2309 51.4376 14.0542 51.2578C14.0542 51.2578 13.3255 54.5986 12.398 56.3495C12.3507 56.3684 12.1236 56.34 11.7828 56.34C10.3348 56.3211 5.97185 56.7091 2.48904 59.8702C-0.993774 63.0312 -0.993774 68.7002 3.57742 67.9147C3.57742 67.9147 7.83629 67.4604 12.0573 61.3939C12.0573 61.3939 12.2561 61.1005 12.4169 60.8923C12.4927 60.8071 13.6567 61.9523 14.2246 62.8419L18.0765 59.0941C17.6506 58.1098 15.5307 57.0025 14.9439 56.8795C14.9439 56.8795 17.026 52.7152 17.9535 50.0085C18.0765 49.9328 18.597 49.5164 18.9094 49.3365C19.4961 48.9864 20.9915 47.8696 20.3479 47.2828C20.3479 47.2828 20.2438 47.1692 19.8274 47.3585C19.411 47.5667 18.7863 47.9737 18.6633 48.0116C18.6633 48.0116 20.9347 41.2163 22.2313 31.6953C22.2975 31.2032 22.4016 30.5596 22.5152 30.1905L22.6288 30.0297C22.6288 30.0297 24.2377 28.4018 24.7487 27.9475C25.2693 27.4933 26.6794 25.856 26.6794 25.856C26.6794 25.856 30.7585 28.4775 29.9446 34.9226C29.1307 41.3772 24.4554 44.1786 21.8338 44.3489C21.8338 44.3489 20.8968 44.33 20.8684 44.8789C20.84 45.5036 21.6918 45.4562 22.165 45.4562C25.0611 45.4278 28.4682 43.1659 30.503 41.3204C33.0299 39.0301 34.5158 36.0772 34.847 32.6512ZM116.296 11.3001C115.169 10.0887 115.245 7.93083 116.485 7.9119C117.895 7.87405 116.854 10.4862 116.296 11.3001ZM91.0641 9.22742C92.8718 9.32206 88.8874 19.7326 86.2847 22.6665C86.0197 22.9694 89.0388 9.11385 91.0641 9.22742ZM77.8238 30.4461C76.83 30.3136 76.1202 29.3198 76.5461 28.9886C76.972 28.6479 77.7291 29.3198 77.8238 30.4461ZM77.7954 31.9793C77.8048 32.3673 77.7291 32.8973 77.7197 33.0582C77.4736 34.7617 76.4609 38.6515 73.7826 38.2351C71.1042 37.8281 71.7856 33.5125 72.6847 32.1307C72.8551 31.8657 73.1106 31.5439 73.4135 31.4209C74.3315 31.2032 74.8047 30.7868 74.9467 29.9539C75.4104 31.137 76.2054 31.9319 77.7954 31.9793ZM66.4857 27.7204C66.6561 25.2881 67.2428 15.9754 68.9653 16.2972C70.6878 16.6189 67.8769 26.0642 66.4857 27.7204ZM61.4224 40.2415C61.2047 41.3866 60.987 42.5413 60.7693 43.6959C60.2583 46.4405 59.6336 49.1189 58.8954 51.7594C58.5358 52.9992 58.2519 54.2579 57.8638 55.4788C57.5894 56.3779 56.9458 59.6998 55.5546 59.3212C55.2139 59.2266 55.053 58.9143 55.0246 58.5736C54.9678 58.0341 55.176 57.4757 55.318 57.012C55.5546 56.1886 55.8007 55.3652 56.0278 54.5229C56.6524 52.384 57.3244 50.2262 57.949 48.0967C58.3371 46.9043 58.6778 45.7023 59.0563 44.5098C59.539 42.9766 59.8892 41.6895 60.334 40.2226C60.8545 40.2983 61.1668 40.2793 61.4224 40.2415ZM59.2551 38.5095C58.1572 38.1215 57.4664 36.7965 57.2392 36.1624C57.1067 35.8217 56.8228 34.4778 57.8922 34.2128C59.0185 33.9384 60.6463 35.6608 59.2551 38.5095ZM25.5059 53.8604C25.4775 53.8983 23.9916 50.5953 26.405 48.0967C26.9444 47.5383 28.0233 46.9894 28.5533 48.0778C29.0739 49.1378 28.0328 50.548 27.9382 50.6994C27.7394 51.0401 25.8087 53.4724 25.5059 53.8604ZM118.463 19.8084C118.444 20.4992 117.308 23.3858 115.756 22.5246C114.346 21.7485 116.542 19.5528 118.463 19.8084ZM122.561 17.4991C121.927 15.8334 120.356 14.6315 119.002 13.4768C118.245 12.8427 117.763 12.4452 117.422 12.1992C117.791 11.5556 117.8 11.5083 117.952 11.2338C118.482 10.1549 119.069 8.72582 118.472 7.4387C117.791 5.96229 115.898 5.74461 114.611 6.64371C114.034 7.05067 113.617 7.66584 113.39 8.3094C112.747 10.1076 113.608 11.4231 114.564 12.7386C114.649 12.8617 115.179 13.4863 115.179 13.4863C115.179 13.4863 114.053 15.682 113.712 16.2782C112.879 17.8587 111.904 19.3541 110.977 20.9062C110.049 22.411 107.589 26.3292 105.44 25.5342C102.402 24.4174 103.443 20.4803 105.989 14.8207C107.257 12.0099 111.384 1.69395 110.712 0.520394C110.428 0.0282573 109.358 -0.378702 108.166 0.51093C107.276 1.16396 106.737 2.16716 106.301 3.09465C102.052 12.2276 101.002 17.4612 100.481 19.6001C100.216 20.6696 100.046 21.8337 99.9888 22.9599C99.8563 25.7708 98.3421 29.2914 96.1275 29.1211C93.9034 28.9507 94.4996 24.9758 95.1527 23.6603C95.5407 22.8558 96.118 22.1649 96.8941 21.7201C97.2064 21.5403 97.5849 21.4078 97.954 21.3699C98.7301 21.2753 99.2222 21.4646 99.2696 20.7453C99.3169 20.0355 98.2948 20.0166 97.6039 19.9882C93.6195 19.9882 90.9979 24.796 90.4679 28.1368C90.3827 28.61 90.1272 30.0296 90.4584 31.1937C90.0893 31.8373 89.0956 32.6512 87.9126 32.6607C85.4519 32.6891 85.698 28.7331 85.9156 26.3481C85.9535 25.9601 86.0103 25.5531 86.1617 25.2124C86.2942 24.9001 86.5971 24.5783 86.8147 24.3133C91.2818 19.1553 96.4682 6.41657 92.3607 6.16103C88.2627 5.9055 84.6474 15.682 83.7105 18.6159C83.171 20.3194 82.7167 22.1176 82.3382 23.8874C82.1584 24.8433 81.7703 27.0295 81.6473 28.1368L81.5337 28.4113C81.2025 29.0738 80.0857 29.8972 79.4232 30.1243C79.4043 30.1621 79.3002 29.2631 78.8743 28.5059C77.9657 26.897 75.912 26.8592 75.1076 28.3734C74.5302 27.304 73.0917 27.55 72.4387 27.8813C70.6215 28.7898 68.4732 31.8089 67.8675 35.1308C67.8107 35.4337 67.7728 35.7649 67.6403 36.0394C66.9021 37.4874 66.0314 38.0553 65.5961 38.3108C65.6718 37.4779 66.0504 32.85 66.1923 31.1464C66.4952 30.5975 66.798 30.0391 67.1009 29.5091C72.5901 20.1017 72.3629 13.7891 69.7319 13.3065C67.0252 12.8049 65.3027 15.8618 64.0345 21.7296C63.6465 23.5467 63.3341 25.4301 63.1259 27.3513C63.0218 28.487 62.9177 29.6038 62.8136 30.73C62.6149 32.4903 62.0186 37.5726 61.659 39.1342C61.3467 39.1436 60.8072 39.0017 60.6652 38.926C60.7315 38.7083 60.7883 38.4622 60.8545 38.2351C61.0627 37.336 61.1479 36.7113 61.1385 35.9353C61.1101 33.8532 59.1699 31.0707 56.0467 32.055C53.3778 32.8973 53.1696 36.4558 55.1476 38.4811C56.4064 39.7683 58.2046 39.9481 58.2046 39.9481C57.968 40.3077 57.5894 40.8472 57.3812 41.1406C53.3305 46.838 51.9771 45.2102 51.8636 44.7843C51.7216 44.2448 51.9109 43.5634 51.9961 43.0429C52.2327 41.5949 52.7153 39.4843 51.6743 38.4054C49.7625 36.418 46.8381 39.4843 45.7308 40.6863C45.3144 41.1406 45.0683 41.5191 44.9263 41.4907C44.7844 41.4624 44.7465 41.1216 44.7276 41.0175C44.4437 39.6831 43.3364 38.6042 41.7937 38.9922C39.2952 39.6168 38.0648 43.2227 37.0995 45.2102C36.049 47.3491 34.97 49.5164 33.5883 51.5038C33.5883 51.5038 31.4588 54.8258 29.2821 55.4977C27.4744 56.0466 26.5659 55.4599 26.3766 55.2327C26.1778 55.0056 26.3009 54.9772 26.3766 54.8825C26.3766 54.8825 30.7301 50.8887 31.6765 47.3775C32.3579 44.8695 30.238 42.4561 25.7898 46.7528C21.3417 51.059 21.654 56.1129 21.654 56.1129L21.6918 56.4725L21.6066 56.5388C21.247 56.9173 18.9661 57.6745 20.2533 58.4221C20.9536 58.8291 21.9663 58.0341 22.184 58.072C22.4016 58.3464 23.0641 59.5578 24.7487 59.9459C29.6323 61.0816 33.134 55.3652 35.0363 51.9865C35.5568 51.059 35.9922 50.1694 36.5979 49.0526C37.1847 47.8791 39.4561 42.8914 40.9135 42.8914C41.6423 42.8914 41.983 43.7621 41.86 44.4057C41.6707 45.4941 40.8851 46.3459 40.3362 47.2828C39.5034 48.6457 37.9229 52.0054 38.4812 53.7468C38.6327 54.22 38.9261 54.6459 39.4277 54.7974C42.3426 55.6397 44.0556 49.1567 44.4815 47.245C44.633 46.573 44.6897 46.2891 44.756 45.6928C44.8033 45.2386 44.8222 44.7275 44.9547 44.3016C45.2292 43.4309 46.7435 41.3961 47.6993 41.1595C48.4092 40.9892 48.5511 41.6043 48.5511 42.1722C48.5511 44.6139 45.0399 49.2987 48.589 50.8697C52.157 52.4502 57.8071 41.7274 58.4601 41.6516C58.6304 41.6043 56.8796 46.7244 56.6524 47.4248C55.9994 49.2419 54.0971 54.6459 53.7659 55.5734C52.1854 59.9648 53.3116 63.1542 56.2739 63.0123C57.2676 62.9649 63.0029 63.088 65.0566 44.6234C65.1986 43.3552 65.473 40.885 65.5677 39.6452C65.5771 39.6168 66.9778 38.8503 67.7823 37.3171C67.7823 40.2983 69.3344 42.6832 72.6563 42.3898C74.2179 42.2479 79.3475 40.4781 79.622 31.6196C79.7734 31.5061 80.7293 31.0329 81.4864 30.0864C81.5432 33.3989 82.4518 35.7744 83.9755 36.5315C86.2942 37.6862 88.8874 35.5851 91.1872 32.8027C92.3607 33.9951 93.4302 34.2601 94.3009 34.1939C96.9319 33.9762 99.7238 29.7552 100.509 27.5879C100.528 27.5879 104.077 35.093 111.488 23.0356C113.4 19.9125 116.05 14.9059 116.286 14.4706C117.63 15.7482 118.264 16.5905 118.491 17.7736C118.558 18.1237 118.567 18.4361 118.567 18.4361L118.368 18.455C116.371 18.6821 114.923 19.2216 113.911 20.7358C112.491 22.8464 113.665 25.6667 116.371 25.8181C121.217 26.0831 124.331 22.1271 122.561 17.4991ZM127.359 24.2187H126.924V22.6949H127.283C127.785 22.6949 128.031 22.9505 128.031 23.4521C128.031 23.7171 127.955 23.9442 127.823 24.0672C127.738 24.1619 127.548 24.2187 127.359 24.2187ZM128.59 26.0642H129.347V25.9033H129.309C129.11 25.9033 128.997 25.8276 128.845 25.5815C128.078 24.4174 128.078 24.4174 127.624 24.3322C128.164 24.3133 128.571 23.9347 128.571 23.4426C128.571 23.1871 128.467 22.9505 128.258 22.7896C128.069 22.6287 127.747 22.553 127.331 22.553H125.902V22.7139C126.328 22.7328 126.403 22.799 126.403 23.1397V25.4963C126.403 25.837 126.328 25.8938 125.902 25.9222V26.0831H127.407V25.9222C126.981 25.9033 126.905 25.837 126.905 25.4963V24.4174H127.189C127.359 24.4174 127.473 24.4647 127.577 24.5783C127.681 24.7013 127.87 24.9947 128.06 25.3354C128.315 25.7329 128.448 25.9317 128.59 26.0642ZM130.416 24.4269C130.416 26.0452 129.11 27.3513 127.492 27.3513C125.883 27.3513 124.567 26.0358 124.567 24.4269C124.567 22.818 125.873 21.5024 127.492 21.5024C129.11 21.5024 130.416 22.818 130.416 24.4269ZM130.785 24.4269C130.785 22.6192 129.309 21.1428 127.492 21.1428C125.675 21.1428 124.198 22.6192 124.198 24.4269C124.198 26.244 125.675 27.7204 127.492 27.7204C129.309 27.7109 130.785 26.2345 130.785 24.4269Z" fill="#C41134"/>
</g>
<defs>
<clipPath id="clip0">
<rect width="130.785" height="68" fill="white"/>
</clipPath>
</defs>
</svg>
